<svg xmlns="http://www.w3.org/2000/svg" width="1005" height="1300" font-family="Arial, Helvetica, sans-serif" style="background-color:#fff"><style>.layerRectangle{stroke:#000;stroke-dasharray:5,5;fill:url(#layers)}.layerText{fill:purple;font-size:150%;filter:url(#outlineWhite)}.nodeFolder{fill:#aaaaaa33;stroke:#f5f5f5}.nodeFile{fill:#ffffffee;stroke:gray}.folderName{font-size:180%;fill:#fff;font-weight:bolder;text-anchor:start;letter-spacing:1px;dominant-baseline:hanging;filter:url(#shadow)}.nodeName{fill:#000;font-weight:700;text-anchor:middle;dominant-baseline:central;filter:url(#outlineWhite)}.line{fill:none;stroke-width:3;opacity:.5}.line:hover{stroke-width:6;opacity:1}</style><defs id="idSvgDef"><linearGradient id="layers" gradientTransform="rotate(90)"><stop offset="0%" stop-color="rgba(105, 24, 114, 0.10)"/><stop offset="100%" stop-color="rgba(105, 24, 114, 0.30)"/></linearGradient><filter id="shadow"><feGaussianBlur in="SourceAlpha" stdDeviation="2"/><feOffset dx="1" dy="1" result="offsetblur"/><feFlood flood-color="#000"/><feComposite in2="offsetblur" operator="in"/><feMerge><feMergeNode/><feMergeNode in="SourceGraphic"/></feMerge></filter><filter id="outlineWhite"><feMorphology in="SourceAlpha" operator="dilate" radius="2" result="DILATED"/><feFlood flood-color="#ffffffaa" flood-opacity="1" result="WHITE"/><feComposite in="WHITE" in2="DILATED" operator="in" result="OUTLINE"/><feMerge><feMergeNode in="OUTLINE"/><feMergeNode in="SourceGraphic"/></feMerge></filter><filter id="outlineBlack"><feMorphology in="SourceAlpha" operator="dilate" radius="2" result="DILATED"/><feFlood flood-color="#000000aa" flood-opacity="1" result="BLACK"/><feComposite in="BLACK" in2="DILATED" operator="in" result="OUTLINE"/><feMerge><feMergeNode in="OUTLINE"/><feMergeNode in="SourceGraphic"/></feMerge></filter><marker id="lineEnd" orient="auto" refX="12" viewBox="0 -5 30 10"><path fill="#3058FFaa" d="M0,-16L32,0L0,16"/></marker><marker id="lineStart" orient="auto" refX="4" viewBox="0 -4 8 8"><circle cx="4" r="4" fill="#377E22aa"/></marker></defs><g id="Layers_Rects"><g id="Layer:0 of glad"><rect id="glad 0" width="970" height="150" x="17.5" y="35" class="layerRectangle" rx="2" ry="2"/></g><g id="Layer:0 of test"><rect id="test 0" width="300" height="80" x="185" y="70" class="layerRectangle" rx="2" ry="2"/></g><g id="Layer:0 of cli"><rect id="cli 0" width="300" height="80" x="520" y="70" class="layerRectangle" rx="2" ry="2"/></g><g id="Layer:1 of glad"><rect id="glad 1" width="970" height="1080" x="17.5" y="185" class="layerRectangle" rx="2" ry="2"/></g><g id="Layer:0 of lib"><rect id="lib 0" width="935" height="80" x="35" y="220" class="layerRectangle" rx="2" ry="2"/></g><g id="Layer:1 of lib"><rect id="lib 1" width="935" height="230" x="35" y="300" class="layerRectangle" rx="2" ry="2"/></g><g id="Layer:0 of render"><rect id="render 0" width="900" height="80" x="52.5" y="335" class="layerRectangle" rx="2" ry="2"/></g><g id="Layer:1 of render"><rect id="render 1" width="900" height="80" x="52.5" y="415" class="layerRectangle" rx="2" ry="2"/></g><g id="Layer:2 of lib"><rect id="lib 2" width="935" height="470" x="35" y="530" class="layerRectangle" rx="2" ry="2"/></g><g id="Layer:0 of models"><rect id="models 0" width="600" height="80" x="202.5" y="565" class="layerRectangle" rx="2" ry="2"/></g><g id="Layer:1 of models"><rect id="models 1" width="600" height="80" x="202.5" y="645" class="layerRectangle" rx="2" ry="2"/></g><g id="Layer:2 of models"><rect id="models 2" width="600" height="80" x="202.5" y="725" class="layerRectangle" rx="2" ry="2"/></g><g id="Layer:3 of models"><rect id="models 3" width="600" height="80" x="202.5" y="805" class="layerRectangle" rx="2" ry="2"/></g><g id="Layer:4 of models"><rect id="models 4" width="600" height="80" x="202.5" y="885" class="layerRectangle" rx="2" ry="2"/></g><g id="Layer:3 of lib"><rect id="lib 3" width="935" height="230" x="35" y="1000" class="layerRectangle" rx="2" ry="2"/></g><g id="Layer:0 of util"><rect id="util 0" width="300" height="80" x="352.5" y="1035" class="layerRectangle" rx="2" ry="2"/></g><g id="Layer:1 of util"><rect id="util 1" width="300" height="80" x="352.5" y="1115" class="layerRectangle" rx="2" ry="2"/></g></g><g id="Node_glad"><rect width="997" height="1292" x="4" y="4" class="nodeFolder" rx="2" ry="2"/><g id="Node_lib"><rect width="962" height="1072" x="21.5" y="189" class="nodeFolder" rx="2" ry="2"/><g id="Node_glad.js"><rect width="292" height="72" x="356.5" y="224" class="nodeFile" rx="8" ry="8"/></g><g id="Node_render"><rect width="927" height="222" x="39" y="304" class="nodeFolder" rx="2" ry="2"/><g id="Node_renderAsPoster.js"><rect width="292" height="72" x="56.5" y="339" class="nodeFile" rx="8" ry="8"/></g><g id="Node_renderAsGrid.js"><rect width="292" height="72" x="356.5" y="339" class="nodeFile" rx="8" ry="8"/></g><g id="Node_renderAsLayers.js"><rect width="292" height="72" x="656.5" y="339" class="nodeFile" rx="8" ry="8"/></g><g id="Node_renderBase.js"><rect width="292" height="72" x="356.5" y="419" class="nodeFile" rx="8" ry="8"/></g></g><g id="Node_models"><rect width="627" height="462" x="189" y="534" class="nodeFolder" rx="2" ry="2"/><g id="Node_graph.js"><rect width="292" height="72" x="206.5" y="569" class="nodeFile" rx="8" ry="8"/></g><g id="Node_layers.js"><rect width="292" height="72" x="506.5" y="569" class="nodeFile" rx="8" ry="8"/></g><g id="Node_layer.js"><rect width="292" height="72" x="206.5" y="649" class="nodeFile" rx="8" ry="8"/></g><g id="Node_edges.js"><rect width="292" height="72" x="506.5" y="649" class="nodeFile" rx="8" ry="8"/></g><g id="Node_edge.js"><rect width="292" height="72" x="206.5" y="729" class="nodeFile" rx="8" ry="8"/></g><g id="Node_containers.js"><rect width="292" height="72" x="506.5" y="729" class="nodeFile" rx="8" ry="8"/></g><g id="Node_container.js"><rect width="292" height="72" x="356.5" y="809" class="nodeFile" rx="8" ry="8"/></g><g id="Node_constants.js"><rect width="292" height="72" x="206.5" y="889" class="nodeFile" rx="8" ry="8"/></g><g id="Node_rectangle.js"><rect width="292" height="72" x="506.5" y="889" class="nodeFile" rx="8" ry="8"/></g></g><g id="Node_util"><rect width="327" height="222" x="339" y="1004" class="nodeFolder" rx="2" ry="2"/><g id="Node_svg.js"><rect width="292" height="72" x="356.5" y="1039" class="nodeFile" rx="8" ry="8"/></g><g id="Node_strings.js"><rect width="292" height="72" x="356.5" y="1119" class="nodeFile" rx="8" ry="8"/></g></g></g><g id="Node_test"><rect width="327" height="142" x="171.5" y="39" class="nodeFolder" rx="2" ry="2"/><g id="Node_test.js"><rect width="292" height="72" x="189" y="74" class="nodeFile" rx="8" ry="8"/></g></g><g id="Node_cli"><rect width="327" height="142" x="506.5" y="39" class="nodeFolder" rx="2" ry="2"/><g id="Node_index.js"><rect width="292" height="72" x="524" y="74" class="nodeFile" rx="8" ry="8"/></g></g></g><g id="Edges"><path fill="none" stroke="#377E2288" d="M632.5 865 C 642.5 885,212.5 885, 222.5 905" class="line"><title>container.js ⬇ constants.js</title></path><path fill="none" stroke="#377E2288" d="M632.5 865 C 642.5 885,512.5 885, 522.5 905" class="line"><title>container.js ⬇ rectangle.js</title></path><path fill="none" stroke="#377E2288" d="M782.5 785 C 792.5 845,212.5 845, 222.5 905" class="line"><title>containers.js ⬇ constants.js</title></path><path fill="none" stroke="#377E2288" d="M782.5 785 C 792.5 805,362.5 805, 372.5 825" class="line"><title>containers.js ⬇ container.js</title></path><path fill="none" stroke="#377E2288" d="M482.5 785 C 492.5 805,362.5 805, 372.5 825" class="line"><title>edge.js ⬇ container.js</title></path><path fill="none" stroke="#377E2288" d="M782.5 705 C 792.5 765,362.5 765, 372.5 825" class="line"><title>edges.js ⬇ container.js</title></path><path fill="none" stroke="#377E2288" d="M782.5 705 C 792.5 725,212.5 725, 222.5 745" class="line"><title>edges.js ⬇ edge.js</title></path><path fill="none" stroke="#377E2288" d="M632.5 280 C 652.5 592,202.5 593, 222.5 905" class="line"><title>glad.js ⬇ constants.js</title></path><path fill="none" stroke="#377E2288" d="M632.5 280 C 650.5 552,354.5 553, 372.5 825" class="line"><title>glad.js ⬇ container.js</title></path><path fill="none" stroke="#377E2288" d="M632.5 280 C 642.5 432,212.5 433, 222.5 585" class="line"><title>glad.js ⬇ graph.js</title></path><path fill="none" stroke="#377E2288" d="M632.5 280 C 642.5 317,362.5 318, 372.5 355" class="line"><title>glad.js ⬇ renderAsGrid.js</title></path><path fill="none" stroke="#377E2288" d="M632.5 280 C 642.5 317,662.5 318, 672.5 355" class="line"><title>glad.js ⬇ renderAsLayers.js</title></path><path fill="none" stroke="#377E2288" d="M632.5 280 C 642.5 317,62.5 318, 72.5 355" class="line"><title>glad.js ⬇ renderAsPoster.js</title></path><path fill="none" stroke="#377E2288" d="M632.5 280 C 660.5 707,344.5 708, 372.5 1135" class="line"><title>glad.js ⬇ strings.js</title></path><path fill="none" stroke="#377E2288" d="M482.5 625 C 492.5 725,362.5 725, 372.5 825" class="line"><title>graph.js ⬇ container.js</title></path><path fill="none" stroke="#377E2288" d="M482.5 625 C 492.5 685,212.5 685, 222.5 745" class="line"><title>graph.js ⬇ edge.js</title></path><path fill="none" stroke="#377E2288" d="M482.5 625 C 492.5 645,512.5 645, 522.5 665" class="line"><title>graph.js ⬇ edges.js</title></path><path fill="none" stroke="#377E2288" d="M482.5 625 C 499.5 880,355.5 880, 372.5 1135" class="line"><title>graph.js ⬇ strings.js</title></path><path fill="none" stroke="#377E2288" d="M800 130 C 825 517,197.5 518, 222.5 905" class="line"><title>index.js ⬇ constants.js</title></path><path fill="none" stroke="#377E2288" d="M800 130 C 810 185,362.5 185, 372.5 240" class="line"><title>index.js ⬇ glad.js</title></path><path fill="none" stroke="#377E2288" d="M482.5 705 C 492.5 805,212.5 805, 222.5 905" class="line"><title>layer.js ⬇ constants.js</title></path><path fill="none" stroke="#377E2288" d="M482.5 705 C 492.5 725,512.5 725, 522.5 745" class="line"><title>layer.js ⬇ containers.js</title></path><path fill="none" stroke="#377E2288" d="M482.5 705 C 492.5 805,512.5 805, 522.5 905" class="line"><title>layer.js ⬇ rectangle.js</title></path><path fill="none" stroke="#377E2288" d="M782.5 625 C 792.5 765,212.5 765, 222.5 905" class="line"><title>layers.js ⬇ constants.js</title></path><path fill="none" stroke="#377E2288" d="M782.5 625 C 792.5 725,362.5 725, 372.5 825" class="line"><title>layers.js ⬇ container.js</title></path><path fill="none" stroke="#377E2288" d="M782.5 625 C 792.5 645,212.5 645, 222.5 665" class="line"><title>layers.js ⬇ layer.js</title></path><path fill="none" stroke="#377E2288" d="M632.5 395 C 649.5 650,205.5 650, 222.5 905" class="line"><title>renderAsGrid.js ⬇ constants.js</title></path><path fill="none" stroke="#377E2288" d="M632.5 395 C 646.5 610,358.5 610, 372.5 825" class="line"><title>renderAsGrid.js ⬇ container.js</title></path><path fill="none" stroke="#377E2288" d="M632.5 395 C 642.5 490,212.5 490, 222.5 585" class="line"><title>renderAsGrid.js ⬇ graph.js</title></path><path fill="none" stroke="#377E2288" d="M632.5 395 C 642.5 415,362.5 415, 372.5 435" class="line"><title>renderAsGrid.js ⬇ renderBase.js</title></path><path fill="none" stroke="#377E2288" d="M932.5 395 C 949.5 650,205.5 650, 222.5 905" class="line"><title>renderAsLayers.js ⬇ constants.js</title></path><path fill="none" stroke="#377E2288" d="M932.5 395 C 942.5 490,212.5 490, 222.5 585" class="line"><title>renderAsLayers.js ⬇ graph.js</title></path><path fill="none" stroke="#377E2288" d="M932.5 395 C 942.5 490,512.5 490, 522.5 585" class="line"><title>renderAsLayers.js ⬇ layers.js</title></path><path fill="none" stroke="#377E2288" d="M932.5 395 C 942.5 415,362.5 415, 372.5 435" class="line"><title>renderAsLayers.js ⬇ renderBase.js</title></path><path fill="none" stroke="#377E2288" d="M332.5 395 C 349.5 650,205.5 650, 222.5 905" class="line"><title>renderAsPoster.js ⬇ constants.js</title></path><path fill="none" stroke="#377E2288" d="M332.5 395 C 346.5 610,358.5 610, 372.5 825" class="line"><title>renderAsPoster.js ⬇ container.js</title></path><path fill="none" stroke="#377E2288" d="M332.5 395 C 342.5 490,212.5 490, 222.5 585" class="line"><title>renderAsPoster.js ⬇ graph.js</title></path><path fill="none" stroke="#377E2288" d="M332.5 395 C 342.5 490,512.5 490, 522.5 585" class="line"><title>renderAsPoster.js ⬇ layers.js</title></path><path fill="none" stroke="#377E2288" d="M332.5 395 C 342.5 415,362.5 415, 372.5 435" class="line"><title>renderAsPoster.js ⬇ renderBase.js</title></path><path fill="none" stroke="#377E2288" d="M632.5 475 C 646.5 690,208.5 690, 222.5 905" class="line"><title>renderBase.js ⬇ constants.js</title></path><path fill="none" stroke="#377E2288" d="M632.5 475 C 643.5 650,361.5 650, 372.5 825" class="line"><title>renderBase.js ⬇ container.js</title></path><path fill="none" stroke="#377E2288" d="M632.5 475 C 642.5 610,212.5 610, 222.5 745" class="line"><title>renderBase.js ⬇ edge.js</title></path><path fill="none" stroke="#377E2288" d="M632.5 475 C 642.5 570,512.5 570, 522.5 665" class="line"><title>renderBase.js ⬇ edges.js</title></path><path fill="none" stroke="#377E2288" d="M632.5 475 C 642.5 530,212.5 530, 222.5 585" class="line"><title>renderBase.js ⬇ graph.js</title></path><path fill="none" stroke="#377E2288" d="M632.5 475 C 642.5 570,212.5 570, 222.5 665" class="line"><title>renderBase.js ⬇ layer.js</title></path><path fill="none" stroke="#377E2288" d="M632.5 475 C 642.5 530,512.5 530, 522.5 585" class="line"><title>renderBase.js ⬇ layers.js</title></path><path fill="none" stroke="#377E2288" d="M632.5 475 C 646.5 690,508.5 690, 522.5 905" class="line"><title>renderBase.js ⬇ rectangle.js</title></path><path fill="none" stroke="#377E2288" d="M632.5 475 C 654.5 805,350.5 805, 372.5 1135" class="line"><title>renderBase.js ⬇ strings.js</title></path><path fill="none" stroke="#377E2288" d="M632.5 475 C 651.5 765,353.5 765, 372.5 1055" class="line"><title>renderBase.js ⬇ svg.js</title></path><path fill="none" stroke="#377E2288" d="M632.5 1095 C 642.5 1115,362.5 1115, 372.5 1135" class="line"><title>svg.js ⬇ strings.js</title></path><path fill="none" stroke="#377E2288" d="M465 130 C 490 517,197.5 518, 222.5 905" class="line"><title>test.js ⬇ constants.js</title></path><path fill="none" stroke="#377E2288" d="M465 130 C 488 477,349.5 478, 372.5 825" class="line"><title>test.js ⬇ container.js</title></path><path fill="none" stroke="#377E2288" d="M465 130 C 480 357,207.5 358, 222.5 585" class="line"><title>test.js ⬇ graph.js</title></path><path fill="none" stroke="#377E2288" d="M465 130 C 475 242,362.5 243, 372.5 355" class="line"><title>test.js ⬇ renderAsGrid.js</title></path><path fill="none" stroke="#377E2288" d="M465 130 C 475 242,662.5 243, 672.5 355" class="line"><title>test.js ⬇ renderAsLayers.js</title></path><path fill="none" stroke="#377E2288" d="M465 130 C 475 242,62.5 243, 72.5 355" class="line"><title>test.js ⬇ renderAsPoster.js</title></path></g><g id="Counters_glad"><g id="Counters_lib"><g id="Counters_glad.js"><g><circle cx="632.5" cy="280" r="10" fill="green"/><text x="632.5" y="280" fill="#fff" dominant-baseline="central" font-size="10" text-anchor="middle">7</text><title>glad.js ⬇ 1 glad/lib/models/graph.js 2 glad/lib/models/container.js 3 glad/lib/models/constants.js 4 glad/lib/render/renderAsPoster.js 5 glad/lib/render/renderAsGrid.js 6 glad/lib/render/renderAsLayers.js 7 glad/lib/util/strings.js</title></g><g><circle cx="372.5" cy="240" r="10" fill="#00f"/><text x="372.5" y="240" fill="#fff" dominant-baseline="central" font-size="10" text-anchor="middle">1</text><title>1 glad/cli/index.js ⬇ glad.js</title></g></g><g id="Counters_render"><g id="Counters_renderAsPoster.js"><g><circle cx="332.5" cy="395" r="10" fill="green"/><text x="332.5" y="395" fill="#fff" dominant-baseline="central" font-size="10" text-anchor="middle">5</text><title>renderAsPoster.js ⬇ 1 glad/lib/render/renderBase.js 2 glad/lib/models/constants.js 3 glad/lib/models/graph.js 4 glad/lib/models/container.js 5 glad/lib/models/layers.js</title></g><g><circle cx="72.5" cy="355" r="10" fill="#00f"/><text x="72.5" y="355" fill="#fff" dominant-baseline="central" font-size="10" text-anchor="middle">2</text><title>1 glad/lib/glad.js 2 glad/test/test.js ⬇ renderAsPoster.js</title></g></g><g id="Counters_renderAsGrid.js"><g><circle cx="632.5" cy="395" r="10" fill="green"/><text x="632.5" y="395" fill="#fff" dominant-baseline="central" font-size="10" text-anchor="middle">4</text><title>renderAsGrid.js ⬇ 1 glad/lib/render/renderBase.js 2 glad/lib/models/constants.js 3 glad/lib/models/graph.js 4 glad/lib/models/container.js</title></g><g><circle cx="372.5" cy="355" r="10" fill="#00f"/><text x="372.5" y="355" fill="#fff" dominant-baseline="central" font-size="10" text-anchor="middle">2</text><title>1 glad/lib/glad.js 2 glad/test/test.js ⬇ renderAsGrid.js</title></g></g><g id="Counters_renderAsLayers.js"><g><circle cx="932.5" cy="395" r="10" fill="green"/><text x="932.5" y="395" fill="#fff" dominant-baseline="central" font-size="10" text-anchor="middle">4</text><title>renderAsLayers.js ⬇ 1 glad/lib/render/renderBase.js 2 glad/lib/models/constants.js 3 glad/lib/models/layers.js 4 glad/lib/models/graph.js</title></g><g><circle cx="672.5" cy="355" r="10" fill="#00f"/><text x="672.5" y="355" fill="#fff" dominant-baseline="central" font-size="10" text-anchor="middle">2</text><title>1 glad/lib/glad.js 2 glad/test/test.js ⬇ renderAsLayers.js</title></g></g><g id="Counters_renderBase.js"><g><circle cx="632.5" cy="475" r="10" fill="green"/><text x="632.5" y="475" fill="#fff" dominant-baseline="central" font-size="10" text-anchor="middle">10</text><title>renderBase.js ⬇ 1 glad/lib/models/graph.js 2 glad/lib/models/constants.js 3 glad/lib/util/strings.js 4 glad/lib/models/edges.js 5 glad/lib/models/container.js 6 glad/lib/models/layer.js 7 glad/lib/models/layers.js 8 glad/lib/models/rectangle.js 9 glad/lib/models/edge.js 10 glad/lib/util/svg.js</title></g><g><circle cx="372.5" cy="435" r="10" fill="#00f"/><text x="372.5" y="435" fill="#fff" dominant-baseline="central" font-size="10" text-anchor="middle">3</text><title>1 glad/lib/render/renderAsGrid.js 2 glad/lib/render/renderAsLayers.js 3 glad/lib/render/renderAsPoster.js ⬇ renderBase.js</title></g></g></g><g id="Counters_models"><g id="Counters_graph.js"><g><circle cx="482.5" cy="625" r="10" fill="green"/><text x="482.5" y="625" fill="#fff" dominant-baseline="central" font-size="10" text-anchor="middle">4</text><title>graph.js ⬇ 1 glad/lib/models/container.js 2 glad/lib/models/edge.js 3 glad/lib/models/edges.js 4 glad/lib/util/strings.js</title></g><g><circle cx="222.5" cy="585" r="10" fill="#00f"/><text x="222.5" y="585" fill="#fff" dominant-baseline="central" font-size="10" text-anchor="middle">6</text><title>1 glad/lib/glad.js 2 glad/test/test.js 3 glad/lib/render/renderAsGrid.js 4 glad/lib/render/renderAsLayers.js 5 glad/lib/render/renderAsPoster.js 6 glad/lib/render/renderBase.js ⬇ graph.js</title></g></g><g id="Counters_layers.js"><g><circle cx="782.5" cy="625" r="10" fill="green"/><text x="782.5" y="625" fill="#fff" dominant-baseline="central" font-size="10" text-anchor="middle">3</text><title>layers.js ⬇ 1 glad/lib/models/constants.js 2 glad/lib/models/layer.js 3 glad/lib/models/container.js</title></g><g><circle cx="522.5" cy="585" r="10" fill="#00f"/><text x="522.5" y="585" fill="#fff" dominant-baseline="central" font-size="10" text-anchor="middle">3</text><title>1 glad/lib/render/renderAsLayers.js 2 glad/lib/render/renderAsPoster.js 3 glad/lib/render/renderBase.js ⬇ layers.js</title></g></g><g id="Counters_layer.js"><g><circle cx="482.5" cy="705" r="10" fill="green"/><text x="482.5" y="705" fill="#fff" dominant-baseline="central" font-size="10" text-anchor="middle">3</text><title>layer.js ⬇ 1 glad/lib/models/constants.js 2 glad/lib/models/rectangle.js 3 glad/lib/models/containers.js</title></g><g><circle cx="222.5" cy="665" r="10" fill="#00f"/><text x="222.5" y="665" fill="#fff" dominant-baseline="central" font-size="10" text-anchor="middle">2</text><title>1 glad/lib/models/layers.js 2 glad/lib/render/renderBase.js ⬇ layer.js</title></g></g><g id="Counters_edges.js"><g><circle cx="782.5" cy="705" r="10" fill="green"/><text x="782.5" y="705" fill="#fff" dominant-baseline="central" font-size="10" text-anchor="middle">2</text><title>edges.js ⬇ 1 glad/lib/models/edge.js 2 glad/lib/models/container.js</title></g><g><circle cx="522.5" cy="665" r="10" fill="#00f"/><text x="522.5" y="665" fill="#fff" dominant-baseline="central" font-size="10" text-anchor="middle">2</text><title>1 glad/lib/models/graph.js 2 glad/lib/render/renderBase.js ⬇ edges.js</title></g></g><g id="Counters_edge.js"><g><circle cx="482.5" cy="785" r="10" fill="green"/><text x="482.5" y="785" fill="#fff" dominant-baseline="central" font-size="10" text-anchor="middle">1</text><title>edge.js ⬇ 1 glad/lib/models/container.js</title></g><g><circle cx="222.5" cy="745" r="10" fill="#00f"/><text x="222.5" y="745" fill="#fff" dominant-baseline="central" font-size="10" text-anchor="middle">3</text><title>1 glad/lib/models/edges.js 2 glad/lib/models/graph.js 3 glad/lib/render/renderBase.js ⬇ edge.js</title></g></g><g id="Counters_containers.js"><g><circle cx="782.5" cy="785" r="10" fill="green"/><text x="782.5" y="785" fill="#fff" dominant-baseline="central" font-size="10" text-anchor="middle">2</text><title>containers.js ⬇ 1 glad/lib/models/container.js 2 glad/lib/models/constants.js</title></g><g><circle cx="522.5" cy="745" r="10" fill="#00f"/><text x="522.5" y="745" fill="#fff" dominant-baseline="central" font-size="10" text-anchor="middle">1</text><title>1 glad/lib/models/layer.js ⬇ containers.js</title></g></g><g id="Counters_container.js"><g><circle cx="632.5" cy="865" r="10" fill="green"/><text x="632.5" y="865" fill="#fff" dominant-baseline="central" font-size="10" text-anchor="middle">2</text><title>container.js ⬇ 1 glad/lib/models/constants.js 2 glad/lib/models/rectangle.js</title></g><g><circle cx="372.5" cy="825" r="10" fill="#00f"/><text x="372.5" y="825" fill="#fff" dominant-baseline="central" font-size="10" text-anchor="middle">10</text><title>1 glad/lib/glad.js 2 glad/test/test.js 3 glad/lib/models/containers.js 4 glad/lib/models/edge.js 5 glad/lib/models/edges.js 6 glad/lib/models/graph.js 7 glad/lib/models/layers.js 8 glad/lib/render/renderAsGrid.js 9 glad/lib/render/renderAsPoster.js 10 glad/lib/render/renderBase.js ⬇ container.js</title></g></g><g id="Counters_constants.js"><g><circle cx="222.5" cy="905" r="10" fill="#00f"/><text x="222.5" y="905" fill="#fff" dominant-baseline="central" font-size="10" text-anchor="middle">11</text><title>1 glad/cli/index.js 2 glad/lib/glad.js 3 glad/test/test.js 4 glad/lib/models/container.js 5 glad/lib/models/containers.js 6 glad/lib/models/layer.js 7 glad/lib/models/layers.js 8 glad/lib/render/renderAsGrid.js 9 glad/lib/render/renderAsLayers.js 10 glad/lib/render/renderAsPoster.js 11 glad/lib/render/renderBase.js ⬇ constants.js</title></g></g><g id="Counters_rectangle.js"><g><circle cx="522.5" cy="905" r="10" fill="#00f"/><text x="522.5" y="905" fill="#fff" dominant-baseline="central" font-size="10" text-anchor="middle">3</text><title>1 glad/lib/models/container.js 2 glad/lib/models/layer.js 3 glad/lib/render/renderBase.js ⬇ rectangle.js</title></g></g></g><g id="Counters_util"><g id="Counters_svg.js"><g><circle cx="632.5" cy="1095" r="10" fill="green"/><text x="632.5" y="1095" fill="#fff" dominant-baseline="central" font-size="10" text-anchor="middle">1</text><title>svg.js ⬇ 1 glad/lib/util/strings.js</title></g><g><circle cx="372.5" cy="1055" r="10" fill="#00f"/><text x="372.5" y="1055" fill="#fff" dominant-baseline="central" font-size="10" text-anchor="middle">1</text><title>1 glad/lib/render/renderBase.js ⬇ svg.js</title></g></g><g id="Counters_strings.js"><g><circle cx="372.5" cy="1135" r="10" fill="#00f"/><text x="372.5" y="1135" fill="#fff" dominant-baseline="central" font-size="10" text-anchor="middle">4</text><title>1 glad/lib/glad.js 2 glad/lib/models/graph.js 3 glad/lib/render/renderBase.js 4 glad/lib/util/svg.js ⬇ strings.js</title></g></g></g></g><g id="Counters_test"><g id="Counters_test.js"><g><circle cx="465" cy="130" r="10" fill="green"/><text x="465" y="130" fill="#fff" dominant-baseline="central" font-size="10" text-anchor="middle">6</text><title>test.js ⬇ 1 glad/lib/models/constants.js 2 glad/lib/models/graph.js 3 glad/lib/models/container.js 4 glad/lib/render/renderAsGrid.js 5 glad/lib/render/renderAsLayers.js 6 glad/lib/render/renderAsPoster.js</title></g></g></g><g id="Counters_cli"><g id="Counters_index.js"><g><circle cx="800" cy="130" r="10" fill="green"/><text x="800" y="130" fill="#fff" dominant-baseline="central" font-size="10" text-anchor="middle">2</text><title>index.js ⬇ 1 glad/lib/models/constants.js 2 glad/lib/glad.js</title></g></g></g></g><g id="Labels_glad"><text x="10" y="10" class="folderName">glad</text><g id="Labels_lib"><text x="27.5" y="195" class="folderName">lib</text><g id="Labels_glad.js"><text x="502.5" y="260" class="nodeName" font-size="120%">glad.js</text></g><g id="Labels_render"><text x="45" y="310" class="folderName">render</text><g id="Labels_renderAsPoster.js"><text x="202.5" y="375" class="nodeName" font-size="120%">renderAsPoster.js</text></g><g id="Labels_renderAsGrid.js"><text x="502.5" y="375" class="nodeName" font-size="120%">renderAsGrid.js</text></g><g id="Labels_renderAsLayers.js"><text x="802.5" y="375" class="nodeName" font-size="120%">renderAsLayers.js</text></g><g id="Labels_renderBase.js"><text x="502.5" y="455" class="nodeName" font-size="120%">renderBase.js</text></g></g><g id="Labels_models"><text x="195" y="540" class="folderName">models</text><g id="Labels_graph.js"><text x="352.5" y="605" class="nodeName" font-size="120%">graph.js</text></g><g id="Labels_layers.js"><text x="652.5" y="605" class="nodeName" font-size="120%">layers.js</text></g><g id="Labels_layer.js"><text x="352.5" y="685" class="nodeName" font-size="120%">layer.js</text></g><g id="Labels_edges.js"><text x="652.5" y="685" class="nodeName" font-size="120%">edges.js</text></g><g id="Labels_edge.js"><text x="352.5" y="765" class="nodeName" font-size="120%">edge.js</text></g><g id="Labels_containers.js"><text x="652.5" y="765" class="nodeName" font-size="120%">containers.js</text></g><g id="Labels_container.js"><text x="502.5" y="845" class="nodeName" font-size="120%">container.js</text></g><g id="Labels_constants.js"><text x="352.5" y="925" class="nodeName" font-size="120%">constants.js</text></g><g id="Labels_rectangle.js"><text x="652.5" y="925" class="nodeName" font-size="120%">rectangle.js</text></g></g><g id="Labels_util"><text x="345" y="1010" class="folderName">util</text><g id="Labels_svg.js"><text x="502.5" y="1075" class="nodeName" font-size="120%">svg.js</text></g><g id="Labels_strings.js"><text x="502.5" y="1155" class="nodeName" font-size="120%">strings.js</text></g></g></g><g id="Labels_test"><text x="177.5" y="45" class="folderName">test</text><g id="Labels_test.js"><text x="335" y="110" class="nodeName" font-size="120%">test.js</text></g></g><g id="Labels_cli"><text x="512.5" y="45" class="folderName">cli</text><g id="Labels_index.js"><text x="670" y="110" class="nodeName" font-size="120%">index.js</text></g></g></g><g id="Layers_Text"><g id="Layer:0 of glad"><text x="977.5" y="45" class="layerText" dominant-baseline="hanging" text-anchor="end">1</text></g><g id="Layer:0 of test"><text x="475" y="80" class="layerText" dominant-baseline="hanging" text-anchor="end">1</text></g><g id="Layer:0 of cli"><text x="810" y="80" class="layerText" dominant-baseline="hanging" text-anchor="end">1</text></g><g id="Layer:1 of glad"><text x="977.5" y="195" class="layerText" dominant-baseline="hanging" text-anchor="end">2</text></g><g id="Layer:0 of lib"><text x="960" y="230" class="layerText" dominant-baseline="hanging" text-anchor="end">1</text></g><g id="Layer:1 of lib"><text x="960" y="310" class="layerText" dominant-baseline="hanging" text-anchor="end">2</text></g><g id="Layer:0 of render"><text x="942.5" y="345" class="layerText" dominant-baseline="hanging" text-anchor="end">1</text></g><g id="Layer:1 of render"><text x="942.5" y="425" class="layerText" dominant-baseline="hanging" text-anchor="end">2</text></g><g id="Layer:2 of lib"><text x="960" y="540" class="layerText" dominant-baseline="hanging" text-anchor="end">3</text></g><g id="Layer:0 of models"><text x="792.5" y="575" class="layerText" dominant-baseline="hanging" text-anchor="end">1</text></g><g id="Layer:1 of models"><text x="792.5" y="655" class="layerText" dominant-baseline="hanging" text-anchor="end">2</text></g><g id="Layer:2 of models"><text x="792.5" y="735" class="layerText" dominant-baseline="hanging" text-anchor="end">3</text></g><g id="Layer:3 of models"><text x="792.5" y="815" class="layerText" dominant-baseline="hanging" text-anchor="end">4</text></g><g id="Layer:4 of models"><text x="792.5" y="895" class="layerText" dominant-baseline="hanging" text-anchor="end">5</text></g><g id="Layer:3 of lib"><text x="960" y="1010" class="layerText" dominant-baseline="hanging" text-anchor="end">4</text></g><g id="Layer:0 of util"><text x="642.5" y="1045" class="layerText" dominant-baseline="hanging" text-anchor="end">1</text></g><g id="Layer:1 of util"><text x="642.5" y="1125" class="layerText" dominant-baseline="hanging" text-anchor="end">2</text></g></g></svg>